<svg xmlns="http://www.w3.org/2000/svg" viewBox="0 0 512 512">
  <!-- Background Circle -->
  <circle cx="256" cy="256" r="256" fill="#8B7355"/>

  <!-- Tanuki Body (darker brown) -->
  <ellipse cx="256" cy="320" rx="140" ry="120" fill="#6B5345"/>

  <!-- Tanuki Head -->
  <circle cx="256" cy="200" r="120" fill="#A0826D"/>

  <!-- Ears -->
  <ellipse cx="190" cy="130" rx="35" ry="50" fill="#6B5345"/>
  <ellipse cx="322" cy="130" rx="35" ry="50" fill="#6B5345"/>
  <ellipse cx="190" cy="135" rx="20" ry="30" fill="#D4A574"/>
  <ellipse cx="322" cy="135" rx="20" ry="30" fill="#D4A574"/>

  <!-- Face mask pattern (dark brown around eyes) -->
  <ellipse cx="220" cy="180" rx="45" ry="55" fill="#3D2817"/>
  <ellipse cx="292" cy="180" rx="45" ry="55" fill="#3D2817"/>

  <!-- White eye area -->
  <ellipse cx="220" cy="185" rx="28" ry="35" fill="#FFFFFF"/>
  <ellipse cx="292" cy="185" rx="28" ry="35" fill="#FFFFFF"/>

  <!-- Eyes -->
  <circle cx="220" cy="190" r="18" fill="#2C1810"/>
  <circle cx="292" cy="190" r="18" fill="#2C1810"/>

  <!-- Eye shine -->
  <circle cx="226" cy="185" r="6" fill="#FFFFFF"/>
  <circle cx="298" cy="185" r="6" fill="#FFFFFF"/>

  <!-- Nose -->
  <ellipse cx="256" cy="220" rx="15" ry="12" fill="#2C1810"/>

  <!-- Snout highlight -->
  <ellipse cx="256" cy="235" rx="30" ry="20" fill="#C9A882" opacity="0.6"/>

  <!-- Mouth -->
  <path d="M 256 220 Q 246 230 240 228" stroke="#2C1810" stroke-width="3" fill="none" stroke-linecap="round"/>
  <path d="M 256 220 Q 266 230 272 228" stroke="#2C1810" stroke-width="3" fill="none" stroke-linecap="round"/>

  <!-- Pen (held in front) -->
  <g transform="translate(340, 280) rotate(-25)">
    <!-- Pen body (fountain pen) -->
    <rect x="0" y="0" width="90" height="16" rx="3" fill="#1E40AF"/>
    <!-- Pen clip -->
    <rect x="15" y="-3" width="4" height="22" rx="2" fill="#60A5FA"/>
    <!-- Pen tip -->
    <path d="M 90 0 L 110 8 L 90 16 Z" fill="#374151"/>
    <!-- Pen nib -->
    <path d="M 110 8 L 125 8" stroke="#D1D5DB" stroke-width="1"/>
    <!-- Pen shine -->
    <rect x="25" y="4" width="40" height="4" rx="2" fill="#3B82F6" opacity="0.5"/>
  </g>

  <!-- Paws -->
  <ellipse cx="200" cy="400" rx="40" ry="25" fill="#6B5345"/>
  <ellipse cx="312" cy="400" rx="40" ry="25" fill="#6B5345"/>

  <!-- Belly patch (lighter) -->
  <ellipse cx="256" cy="340" rx="60" ry="70" fill="#C9A882" opacity="0.4"/>
</svg>
